<svg width="18" height="18" viewBox="0 0 18 18" fill="none" xmlns="http://www.w3.org/2000/svg">
<path d="M17.171 4.93694C16.5959 5.19243 15.9773 5.36483 15.3279 5.44218C15.9906 5.0453 16.4993 4.41649 16.739 3.66678C16.1188 4.03467 15.4324 4.30178 14.7012 4.4458C14.116 3.82214 13.282 3.43237 12.3591 3.43237C10.5869 3.43237 9.15015 4.86918 9.15015 6.64134C9.15015 6.8928 9.1785 7.13759 9.23324 7.37245C6.56627 7.23881 4.2016 5.96138 2.61893 4.01978C2.3428 4.49355 2.18452 5.0447 2.18452 5.63303C2.18452 6.74627 2.75101 7.72839 3.61203 8.30402C3.08616 8.28713 2.59115 8.14295 2.15862 7.90248C2.15833 7.91581 2.15833 7.92931 2.15833 7.94312C2.15833 9.4976 3.26447 10.7946 4.73258 11.0896C4.46328 11.1628 4.17975 11.2021 3.88705 11.2021C3.68007 11.2021 3.47916 11.1821 3.2832 11.1445C3.69173 12.4193 4.87676 13.3471 6.28071 13.373C5.18248 14.2337 3.79898 14.7467 2.29536 14.7467C2.03647 14.7467 1.78114 14.7314 1.53 14.7019C2.95036 15.6125 4.63692 16.1437 6.44905 16.1437C12.3516 16.1437 15.579 11.2539 15.579 7.01339C15.579 6.87448 15.5762 6.73573 15.57 6.59822C16.1968 6.14585 16.7411 5.58064 17.171 4.93694Z" fill="black"/>
</svg>
